PathFileType	4	(X/Y/Z)	C:\Users\Basilio\Documents\Thesis Gigler\squatting_fais\c3dfiles\038\SLS_front_pre2\markers_experimental.trc
DataRate	CameraRate	NumFrames	NumMarkers	Units	OrigDataRate	OrigDataStartFrame	OrigNumFrames
200.000000	200.000000	4	61	mm	200.000000	171	1369
Frame#	Time	FHD			LBHD			RBHD			C7			T10			CLAV			LSHO			LUUPA			LMUPA			LDUPA			LLEP			LMEP			LUL			LRFIN			RSHO			RUPA1			RMUPA			RDUPA			RLEP			RMEP			RRAD			RUL			RUFIN			LASI			RASI			USACR			LSACR			RSACR			LTHI1			LTHI2			LTHI3			LTHI4			LLFC			LMFC			LTIB1			LTIB2			LTIB3			LTIB4			LLMAL			LMMAL			LHEE			LMT1			LMT2			LMT5			RTHI			RTHI2			RTHI3			RTHI4			RLFC			RMFC			RTIB1			RTIB2			RTIB3			RTIB4			RLMAL			RMMAL			RHEE			RMT1			RMT2			RMT5			LRAD			
		X1	Y1	Z1	X2	Y2	Z2	X3	Y3	Z3	X4	Y4	Z4	X5	Y5	Z5	X6	Y6	Z6	X7	Y7	Z7	X8	Y8	Z8	X9	Y9	Z9	X10	Y10	Z10	X11	Y11	Z11	X12	Y12	Z12	X13	Y13	Z13	X14	Y14	Z14	X15	Y15	Z15	X16	Y16	Z16	X17	Y17	Z17	X18	Y18	Z18	X19	Y19	Z19	X20	Y20	Z20	X21	Y21	Z21	X22	Y22	Z22	X23	Y23	Z23	X24	Y24	Z24	X25	Y25	Z25	X26	Y26	Z26	X27	Y27	Z27	X28	Y28	Z28	X29	Y29	Z29	X30	Y30	Z30	X31	Y31	Z31	X32	Y32	Z32	X33	Y33	Z33	X34	Y34	Z34	X35	Y35	Z35	X36	Y36	Z36	X37	Y37	Z37	X38	Y38	Z38	X39	Y39	Z39	X40	Y40	Z40	X41	Y41	Z41	X42	Y42	Z42	X43	Y43	Z43	X44	Y44	Z44	X45	Y45	Z45	X46	Y46	Z46	X47	Y47	Z47	X48	Y48	Z48	X49	Y49	Z49	X50	Y50	Z50	X51	Y51	Z51	X52	Y52	Z52	X53	Y53	Z53	X54	Y54	Z54	X55	Y55	Z55	X56	Y56	Z56	X57	Y57	Z57	X58	Y58	Z58	X59	Y59	Z59	X60	Y60	Z60	X61	Y61	Z61	

172	0.855	-238.3190307617188	1768.79833984375	-997.674255371094	-396.1553344726564	1725.432739257813	-1060.082275390625	-388.691375732422	1708.369506835938	-915.6071777343752	-442.2437438964845	1531.070922851563	-988.4674072265627	-394.8579406738282	1252.3642578125	-983.5017700195315	-298.9602050781251	1527.87939453125	-1002.37548828125	-375.3028869628907	1557.6845703125	-1141.942138671875	-213.4378967285157	1483.617065429688	-1271.71142578125	-184.1216735839844	1517.252685546875	-1246.814697265625	-143.7980041503907	1487.945068359375	-1280.17626953125	-82.5646209716797	1487.47802734375	-1281.863525390625	-76.00798797607423	1414.055908203125	-1254.499267578125	212.5832824707032	1482.5048828125	-1259.088256835938	279.4815673828126	1497.61083984375	-1171.83935546875	-348.2254638671876	1546.951171875	-853.4785766601565	-187.3080749511719	1495.583129882813	-741.2926025390626	-151.515625	1509.98876953125	-772.188415527344	-119.3291625976563	1486.678466796875	-726.5308227539064	-46.32277297973634	1480.773681640625	-718.1674804687501	-45.21923828125001	1405.01318359375	-742.3083496093751	228.1378021240235	1462.528686523438	-800.8013305664065	240.092758178711	1474.48193359375	-732.4738769531251	310.3433227539063	1490.703002929688	-806.6547851562502	-211.6255340576172	1076.772338867188	-1100.648559570313	-219.4629058837891	1087.517822265625	-846.506042480469	-386.0064392089845	1124.023315429688	-980.7730712890627	-397.8185119628907	1094.798095703125	-1008.372802734375	-397.8423767089845	1096.046875	-952.106872558594	-267.2469482421876	752.0264892578126	-1144.669799804688	-243.8281250000001	671.1459350585939	-1134.214721679688	-197.6473236083985	672.5461425781251	-1112.099609375	-275.9851074218751	624.7449340820314	-1115.359252929688	-276.6821289062501	561.7801513671876	-1107.37841796875	-267.9365844726563	553.2728271484376	-986.4897460937502	-255.0405731201172	371.1764831542969	-1038.079833984375	-298.1434326171876	332.5638427734376	-1104.966064453125	-264.0638122558594	325.4184265136719	-1075.41845703125	-280.4339599609376	246.2527008056641	-1048.799926757813	-369.6536865234376	116.3318710327149	-1071.557006835938	-329.4362792968751	128.5986328125	-1001.773132324219	-417.3363647460939	94.18485260009767	-1016.786743164063	-216.6439971923829	47.11596679687501	-1018.347351074219	-210.4708709716797	46.58895492553712	-1069.18212890625	-257.4926147460938	33.84090042114259	-1113.39306640625	-288.4023132324219	817.7181396484377	-786.7371215820315	-257.9569091796876	757.7047729492189	-777.3854980468752	-224.3853912353516	756.4554443359376	-780.2115478515627	-292.9153747558594	681.1972045898439	-794.896423339844	-289.6453857421876	544.5570068359376	-794.9144287109377	-288.1596374511719	537.1685791015626	-916.1490478515627	-252.8283081054688	366.0497741699219	-811.725524902344	-330.9931335449219	291.1641235351563	-769.9541015625002	-285.0917358398438	291.7294311523438	-780.4626464843752	-277.1419677734376	239.1609191894532	-807.2612915039065	-345.4093933105469	120.3709716796875	-772.0800781250002	-315.6329650878907	125.3430862426758	-850.858093261719	-405.7788085937501	86.11187744140626	-832.748962402344	-193.4810485839844	49.43150329589845	-826.3652954101565	-195.7927398681641	48.44099044799806	-779.7634887695315	-239.1116333007813	34.10827255249024	-734.7465209960939	nan	nan	nan	
173	0.86	-238.3490142822266	1768.367431640625	-998.112243652344	-395.9420166015626	1725.660400390625	-1060.677734375	-388.8353271484376	1708.271728515625	-916.1924438476565	-442.3563232421876	1531.126586914063	-989.2128906250002	-394.9454040527345	1252.44677734375	-984.169128417969	-299.0910034179688	1527.807495117188	-1003.097290039063	-375.4652404785157	1557.72265625	-1142.668823242188	-213.5182037353516	1483.666381835938	-1272.3310546875	-183.9630279541016	1517.7705078125	-1247.420043945313	-143.8623046875	1487.952392578125	-1280.928466796875	-82.83078765869142	1487.499145507813	-1282.571899414063	-76.2451858520508	1414.462036132813	-1255.1494140625	212.4349060058594	1482.595336914063	-1259.637451171875	279.3756408691407	1497.668334960938	-1172.453247070313	-348.4299926757813	1546.855834960938	-854.2440185546877	-187.5167236328125	1495.587280273438	-742.0610961914064	-151.7296600341797	1509.871826171875	-772.8740234375002	-119.5634765625	1486.622192382813	-727.0691528320314	-46.54108047485352	1480.782348632813	-718.8444824218751	-45.38645935058594	1405.043090820313	-743.0184326171876	228.0416870117188	1462.395751953125	-801.4678955078127	240.1263122558594	1474.656616210938	-733.0327758789064	310.2276306152344	1490.63818359375	-807.2155761718752	-211.4263763427735	1077.151489257813	-1101.16015625	-219.9244689941407	1087.619873046875	-847.053405761719	-386.1832885742189	1123.95849609375	-981.6320800781252	-397.9421997070314	1094.762329101563	-1009.039794921875	-398.322479248047	1096.023559570313	-952.9785156250002	-267.2566223144532	751.9433593750001	-1144.921875	-243.7323608398438	671.0585937500001	-1134.510009765625	-197.614242553711	672.5691528320314	-1112.499755859375	-275.9024658203126	624.6116333007814	-1115.75537109375	-276.6949462890626	561.7105712890626	-1107.644897460938	-268.0657043457032	553.2877807617189	-986.8543701171877	-255.0809020996094	371.1352844238282	-1038.225708007813	-298.1083984375001	332.4721069335938	-1105.1064453125	-264.0214538574219	325.3239440917969	-1075.565673828125	-280.1716918945313	246.7085266113282	-1048.609130859375	-369.6582641601563	116.2762985229492	-1071.586181640625	-329.3990783691407	128.5243682861328	-1001.771118164063	-417.3446044921876	94.17751312255861	-1016.774536132813	-216.693832397461	47.09169387817384	-1018.368469238281	-210.4639892578126	46.61385345458985	-1069.152221679688	-257.5216979980469	33.83154296875001	-1113.4111328125	-288.5573120117188	817.6826782226565	-787.2359008789065	-258.0824584960938	757.7917480468751	-777.9090576171877	-224.4094238281251	756.4594726562501	-780.7036132812502	-292.8492126464844	681.1881713867189	-795.3194580078127	-289.4149475097657	544.6625976562501	-795.2792968750002	-287.8953247070313	537.0560913085939	-916.462829589844	-252.5467681884766	366.0482482910157	-811.996520996094	-331.1002502441407	291.0881652832032	-770.3178710937502	-284.9858398437501	291.7272949218751	-780.612976074219	-277.0545043945313	239.1088867187501	-807.3970336914065	-345.0791320800782	120.5619125366211	-771.9251098632815	-315.4630432128907	125.3650207519532	-850.9108886718752	-405.7805175781251	86.18186950683595	-832.7415771484377	-193.4555358886719	49.43358612060548	-826.3623046875002	-195.7750701904297	48.44157791137697	-779.7551879882815	-239.1082305908204	34.09733200073243	-734.7838745117189	nan	nan	nan	
174	0.865	-238.3002624511719	1768.315795898438	-998.8114013671877	-395.9800415039064	1725.682495117188	-1061.496704101563	-388.9274291992189	1708.226440429688	-916.9556274414065	-442.7257080078126	1531.112060546875	-989.8823242187502	-395.2444458007814	1252.387817382813	-984.9470214843752	-299.3251953125001	1527.696533203125	-1003.768127441406	-375.5721435546876	1557.74365234375	-1143.376953125	-213.6666717529297	1483.666015625	-1272.98974609375	-184.1935424804688	1517.575927734375	-1248.12548828125	-144.0706634521485	1488.018310546875	-1281.585571289063	-82.83155822753908	1487.611328125	-1283.26904296875	-76.26669311523439	1414.464599609375	-1255.764038085938	212.2352752685547	1482.706787109375	-1260.366821289063	279.1968078613282	1497.718627929688	-1173.015258789063	-348.5595703125001	1546.739990234375	-854.898132324219	-187.6473388671875	1495.479370117188	-742.7930908203126	-151.8506927490235	1509.709350585938	-773.6199951171877	-119.7671127319336	1486.637084960938	-727.6871337890626	-46.70869445800782	1480.709106445313	-719.4271240234376	-45.55184555053712	1405.012573242188	-743.4786376953126	227.8795013427735	1462.358154296875	-802.1226196289065	239.9391479492188	1474.64306640625	-733.6859130859376	310.0919494628907	1490.575439453125	-807.8880004882815	-211.8188629150391	1076.739135742188	-1101.817016601563	-220.4610290527344	1087.573974609375	-847.6675415039065	-386.3569335937501	1123.934814453125	-982.406433105469	-398.3374328613282	1094.733276367188	-1009.856384277344	-400.7892456054689	1095.837768554688	-954.2868652343752	-267.2348022460938	751.9050903320314	-1145.347900390625	-243.5986785888672	670.9692993164064	-1134.848999023438	-197.5457153320313	672.5188598632814	-1112.835327148438	-275.7913513183594	624.5504150390626	-1116.123901367188	-276.4846801757813	561.5506591796876	-1107.931396484375	-268.0893859863282	553.3056030273439	-987.1866455078127	-255.1147613525391	371.1275634765626	-1038.357788085938	-297.9429321289063	332.4160766601563	-1105.221313476563	-263.9570007324219	325.1929016113282	-1075.681518554688	-280.1894531250001	246.625473022461	-1048.670166015625	-369.6400451660157	116.2375869750977	-1071.586791992188	-329.4913635253907	128.5478820800782	-1001.771667480469	-417.3312377929689	94.17650604248048	-1016.782775878906	-216.7369842529297	46.99588012695313	-1018.414611816406	-210.4958038330079	46.63248443603516	-1069.168090820313	-257.5135803222657	33.85651779174805	-1113.409545898438	-288.7124633789063	817.6160278320315	-787.7003173828127	-258.1669616699219	757.7917480468751	-778.4045410156252	-224.4804382324219	756.4520874023439	-781.1754150390627	-292.6647949218751	681.1391601562501	-795.6848754882815	-289.1983032226563	544.6989746093751	-795.6026611328127	-287.6701660156251	536.9598388671876	-916.7278442382815	-252.3719329833985	366.0466613769532	-812.2673339843752	-330.8788757324219	291.1661682128907	-770.4816894531252	-284.8177795410157	291.6981811523438	-780.8491210937502	-276.9469909667969	239.2273101806641	-807.5637817382815	-344.9883728027344	120.6531829833985	-771.983581542969	-315.4556579589844	125.4041290283203	-850.986267089844	-405.7532958984376	86.23361968994142	-832.7175903320315	-193.3597106933594	49.28911209106447	-826.3762207031252	-195.8709259033204	48.2173538208008	-780.0585937500002	-238.9402770996094	33.76714324951173	-735.0733642578126	nan	nan	nan	
175	0.87	-238.3401489257813	1768.353515625	-999.665954589844	-396.0383605957032	1725.588256835938	-1062.255859375	-388.9451599121095	1708.262451171875	-917.7218017578127	-442.8481750488282	1531.112915039063	-990.6324462890627	-395.9173583984376	1252.202270507813	-985.8826293945315	-299.4549255371094	1527.659057617188	-1004.387145996094	-375.7695007324219	1557.755737304688	-1144.0498046875	-213.846420288086	1483.64892578125	-1273.817138671875	-184.314208984375	1517.643920898438	-1248.891723632813	-144.1637573242188	1488.095458984375	-1282.282836914063	-82.88449859619142	1487.660034179688	-1283.946166992188	-76.31388092041017	1414.519287109375	-1256.603515625	212.1267700195313	1482.758544921875	-1261.049194335938	279.0567626953126	1497.791625976563	-1173.655517578125	-348.7062683105469	1546.760620117188	-855.7355957031252	-187.7112884521485	1495.485595703125	-743.5349731445314	-151.9795379638672	1509.848876953125	-774.566833496094	-120.0500259399414	1486.554077148438	-728.4815063476564	-46.92378616333009	1480.6728515625	-720.0795898437501	-45.84116744995118	1404.843505859375	-743.9696044921876	227.7119903564454	1462.307495117188	-802.8201293945315	239.5473785400391	1474.410400390625	-734.3872070312501	309.8656616210938	1490.537841796875	-808.6768798828127	-211.8267517089844	1076.672119140625	-1102.444458007813	-220.913558959961	1087.54833984375	-848.1047363281252	-386.7022399902345	1123.903686523438	-983.1980590820315	-398.4863586425782	1094.590087890625	-1010.801513671875	-400.9558715820314	1095.750122070313	-955.0051879882815	-267.1235351562501	751.7493896484376	-1146.010864257813	-243.4777832031251	670.8776855468751	-1135.286254882813	-197.4889678955079	672.4440307617189	-1113.254272460938	-275.7581176757813	624.4312133789064	-1116.343383789063	-276.3767395019532	561.4737548828126	-1108.187622070313	-268.2477722167969	553.3430175781251	-987.5313110351565	-255.105453491211	371.0896911621094	-1038.456909179688	-297.9284057617188	332.2099304199219	-1105.423950195313	-263.8551330566407	325.1221313476563	-1075.788330078125	-280.1582641601563	246.5828704833985	-1048.707763671875	-369.5744628906251	116.1966400146485	-1071.620727539063	-329.4912414550782	128.50732421875	-1001.757019042969	-417.3308715820314	94.10935974121095	-1016.769165039063	-216.6798553466797	46.97785568237305	-1018.427124023438	-210.4499969482422	46.66075897216798	-1069.132568359375	-257.4936828613282	33.86863327026368	-1113.4150390625	-288.8555297851563	817.5493774414065	-788.2220458984377	-258.1268310546876	757.7594604492189	-778.9831542968752	-224.5529785156251	756.5086059570314	-781.5583496093752	-292.5185546875001	681.0413818359376	-796.1104125976565	-289.1337890625001	544.3803710937501	-796.005065917969	-287.3997192382813	536.8676147460939	-917.1007080078127	-251.9682922363282	366.2861938476563	-812.322448730469	-330.6965942382813	291.1488647460938	-770.640808105469	-284.5640869140626	291.7277832031251	-781.0418701171877	-276.8089294433594	239.2696838378907	-807.735534667969	-344.9031677246094	120.7456893920899	-772.042419433594	-315.3158874511719	125.3819885253907	-851.048522949219	-405.7703857421876	86.26315307617189	-832.7812500000002	-193.3961029052735	49.40768432617189	-826.4268798828127	-195.8491973876954	48.2124481201172	-780.0632324218752	-238.9288787841797	33.76983642578126	-735.1126708984376	nan	nan	nan	
